# xmcd CD database file generated by OrangeCD 6.1
#
# Track frame offsets:
#	150
#	22500
#	43194
#	62992
#	89529
#	109342
#	130081
#	149277
#	169985
#	190761
#	210695
#	222570
#	250340
#
# Disc length: 3753 seconds
#
# Revision: 1
# Processed by: cddbd v1.5.2PL0 Copyright (c) Steve Scherf et al.
# Submitted via: OrangeCD 6.1
#
DISCID=c40ea70d
DTITLE=Various Artist - 94 - Cool
DYEAR=1900
DGENRE=New Age
TTITLE0=Dulce Pontes - Alma guerriera (fogo)
TTITLE1=Cindy Horstman - In flight
TTITLE2=Clara Ponty - Pierrot
TTITLE3=Ductia - Erme
TTITLE4=Withchcraft - Angel dust
TTITLE5=Enzo Gragnaniello - Rom Spirit
TTITLE6=Cindy Horstman and Friends - Tailwind
TTITLE7=Secret Garden - Prayer
TTITLE8=Christopher Peacock - Neither here nor there
TTITLE9=Rudy Adrian - Valley of mists
TTITLE10=Exodus Quartet - Corcovado
TTITLE11=Alberto Grollo - Alba sulle Tofane
TTITLE12=Astral Jazz - Hypnosis
EXTD=
EXTT0=
EXTT1=
EXTT2=
EXTT3=
EXTT4=
EXTT5=
EXTT6=
EXTT7=
EXTT8=
EXTT9=
EXTT10=
EXTT11=
EXTT12=
PLAYORDER=
